<svg width="466" height="7" viewBox="0 0 466 7" fill="none" xmlns="http://www.w3.org/2000/svg">
<circle cx="2.93854" cy="2.93286" r="2.32144" transform="rotate(-18.2968 2.93854 2.93286)" fill="white"/>
<circle cx="12.7265" cy="2.95648" r="2.32144" transform="rotate(-18.2968 12.7265 2.95648)" fill="white"/>
<circle cx="22.5146" cy="2.98004" r="2.32144" transform="rotate(-18.2968 22.5146 2.98004)" fill="white"/>
<circle cx="32.3026" cy="3.00366" r="2.32144" transform="rotate(-18.2968 32.3026 3.00366)" fill="white"/>
<circle cx="42.0906" cy="3.02722" r="2.32144" transform="rotate(-18.2968 42.0906 3.02722)" fill="white"/>
<circle cx="51.8786" cy="3.05078" r="2.32144" transform="rotate(-18.2968 51.8786 3.05078)" fill="white"/>
<circle cx="61.6666" cy="3.0744" r="2.32144" transform="rotate(-18.2968 61.6666 3.0744)" fill="white"/>
<circle cx="71.4546" cy="3.09796" r="2.32144" transform="rotate(-18.2968 71.4546 3.09796)" fill="white"/>
<circle cx="81.2426" cy="3.12158" r="2.32144" transform="rotate(-18.2968 81.2426 3.12158)" fill="white"/>
<circle cx="91.0306" cy="3.1452" r="2.32144" transform="rotate(-18.2968 91.0306 3.1452)" fill="white"/>
<circle cx="100.819" cy="3.16882" r="2.32144" transform="rotate(-18.2968 100.819 3.16882)" fill="white"/>
<circle cx="110.607" cy="3.19238" r="2.32144" transform="rotate(-18.2968 110.607 3.19238)" fill="white"/>
<circle cx="120.395" cy="3.216" r="2.32144" transform="rotate(-18.2968 120.395 3.216)" fill="white"/>
<circle cx="130.183" cy="3.23956" r="2.32144" transform="rotate(-18.2968 130.183 3.23956)" fill="white"/>
<circle cx="139.971" cy="3.26312" r="2.32144" transform="rotate(-18.2968 139.971 3.26312)" fill="white"/>
<circle cx="149.759" cy="3.28674" r="2.32144" transform="rotate(-18.2968 149.759 3.28674)" fill="white"/>
<circle cx="159.547" cy="3.3103" r="2.32144" transform="rotate(-18.2968 159.547 3.3103)" fill="white"/>
<circle cx="169.335" cy="3.33392" r="2.32144" transform="rotate(-18.2968 169.335 3.33392)" fill="white"/>
<circle cx="179.123" cy="3.35748" r="2.32144" transform="rotate(-18.2968 179.123 3.35748)" fill="white"/>
<circle cx="188.911" cy="3.3811" r="2.32144" transform="rotate(-18.2968 188.911 3.3811)" fill="white"/>
<circle cx="198.699" cy="3.40472" r="2.32144" transform="rotate(-18.2968 198.699 3.40472)" fill="white"/>
<circle cx="208.487" cy="3.42828" r="2.32144" transform="rotate(-18.2968 208.487 3.42828)" fill="white"/>
<circle cx="218.275" cy="3.4519" r="2.32144" transform="rotate(-18.2968 218.275 3.4519)" fill="white"/>
<circle cx="228.063" cy="3.47552" r="2.32144" transform="rotate(-18.2968 228.063 3.47552)" fill="white"/>
<circle cx="237.851" cy="3.49908" r="2.32144" transform="rotate(-18.2968 237.851 3.49908)" fill="white"/>
<circle cx="247.639" cy="3.5227" r="2.32144" transform="rotate(-18.2968 247.639 3.5227)" fill="white"/>
<circle cx="257.427" cy="3.54626" r="2.32144" transform="rotate(-18.2968 257.427 3.54626)" fill="white"/>
<circle cx="267.215" cy="3.56988" r="2.32144" transform="rotate(-18.2968 267.215 3.56988)" fill="white"/>
<circle cx="306.367" cy="3.66424" r="2.32144" transform="rotate(-18.2968 306.367 3.66424)" fill="white"/>
<circle cx="316.155" cy="3.68786" r="2.32144" transform="rotate(-18.2968 316.155 3.68786)" fill="white"/>
<circle cx="325.943" cy="3.71142" r="2.32144" transform="rotate(-18.2968 325.943 3.71142)" fill="white"/>
<circle cx="335.731" cy="3.73504" r="2.32144" transform="rotate(-18.2968 335.731 3.73504)" fill="white"/>
<circle cx="345.519" cy="3.7586" r="2.32144" transform="rotate(-18.2968 345.519 3.7586)" fill="white"/>
<circle cx="355.307" cy="3.78223" r="2.32144" transform="rotate(-18.2968 355.307 3.78223)" fill="white"/>
<circle cx="365.095" cy="3.80585" r="2.32144" transform="rotate(-18.2968 365.095 3.80585)" fill="white"/>
<circle cx="374.883" cy="3.82941" r="2.32144" transform="rotate(-18.2968 374.883 3.82941)" fill="white"/>
<circle cx="384.671" cy="3.85303" r="2.32144" transform="rotate(-18.2968 384.671 3.85303)" fill="white"/>
<circle cx="394.459" cy="3.87659" r="2.32144" transform="rotate(-18.2968 394.459 3.87659)" fill="white"/>
<circle cx="404.247" cy="3.90021" r="2.32144" transform="rotate(-18.2968 404.247 3.90021)" fill="white"/>
<circle cx="414.035" cy="3.92377" r="2.32144" transform="rotate(-18.2968 414.035 3.92377)" fill="white"/>
<circle cx="423.823" cy="3.94739" r="2.32144" transform="rotate(-18.2968 423.823 3.94739)" fill="white"/>
<circle cx="433.611" cy="3.97095" r="2.32144" transform="rotate(-18.2968 433.611 3.97095)" fill="white"/>
<circle cx="443.399" cy="3.99451" r="2.32144" transform="rotate(-18.2968 443.399 3.99451)" fill="white"/>
<circle cx="453.187" cy="4.01813" r="2.32144" transform="rotate(-18.2968 453.187 4.01813)" fill="white"/>
<circle cx="462.975" cy="4.04169" r="2.32144" transform="rotate(-18.2968 462.975 4.04169)" fill="white"/>
</svg>
